<svg height="161" viewBox="0 0 889 161" width="889" xmlns="http://www.w3.org/2000/svg"><g fill="none" fill-rule="evenodd"><g stroke="#f96352" stroke-width=".5" transform="translate(222 42)"><path d="m189.28 1.06c-21 0-39.06 13.6-39.06 36.73 0 21 15.93 36.74 39.06 36.74 12.83 0 27-5.83 33.63-17.49l-10.3-7.2c-4.67 8-14.19 12.44-23.33 12.44-11.85 0-23.52-6.6-25.85-19.43h64.34c2.33-25.27-15.16-41.79-38.49-41.79zm-25.46 29.94c3.5-11.27 13.8-17.49 25.46-17.49 10.89 0 21.58 5.83 25.27 17.49z"/><path d="m365.14 1.06c-21 0-39.07 13.6-39.07 36.73 0 21 15.94 36.74 39.07 36.74 12.82 0 27-5.83 33.62-17.49l-10.3-7.2c-4.67 8-14.19 12.44-23.32 12.44-11.86 0-23.52-6.6-25.86-19.43h64.34c2.38-25.27-15.16-41.79-38.48-41.79zm-25.47 29.94c3.5-11.27 13.8-17.49 25.47-17.49 10.88 0 21.57 5.83 25.26 17.49z"/><path d="m627.12 1.06c-21 0-39.07 13.6-39.07 36.73 0 21 15.94 36.74 39.07 36.74 12.83 0 27-5.83 33.63-17.49l-10.31-7.2c-4.66 8-14.19 12.44-23.32 12.44-11.86 0-23.52-6.6-25.85-19.43h64.33c2.34-25.27-15.16-41.79-38.48-41.79zm-25.46 29.94c3.5-11.27 13.8-17.49 25.46-17.49 10.88 0 21.57 5.83 25.27 17.49z"/><path d="m545.09 62.87c-11.936136.0378935-22.245191-8.341694-24.646744-20.0337989-2.401552-11.6921049 3.769883-23.4567767 14.754579-28.1268107 10.984696-4.6700339 23.738731-.9513363 30.492165 8.8906096l9.92-7c-7.39-10.5-20-15.55-30.52-15.55-16.13 0-36.93 11.66-36.93 36.73 0 25.27 20.8 36.74 36.93 36.74 10.5 0 23.13-5 30.52-15.55l-9.92-6.8c-4.73434 6.6857557-12.407779 10.6714742-20.6 10.7z"/><path d="m419.41 71.41h12.44v-25.41c0-11.47 0-18.27 6-25.27 4.28-4.86 10.5-7.19 18.28-7.19 8 0 14 2.33 18.46 7.19 6.22 6.61 5.83 13.8 5.83 25.27v25.46h12.44v-30.9c0-27-15-39.46-36.73-39.46-21 0-36.74 12.44-36.74 39.46z"/><path d="m109.43 45.76c0-11.47 1.16-18.47 8-25.27 4.86-4.86 11.66-7 20.41-7v-12.63c-21 0-40.82 15.35-40.82 39.45v31.1h12.44z"/><path d="m41.3 1.06c-21 0-40.81 15.35-40.81 39.45v51.9h12.44v-28.77c13.41 13.61 39.65 14.58 53.45 2.14 8.74-8 12.83-16.71 12.83-28.57 0-20.6-16.14-36.15-37.91-36.15zm17.7 54.62c-5.1668801 4.7402926-11.9927209 7.2550761-19 7-6.8-.19-13.6-2.14-19-7-9.72-8.56-9.72-25.27 0-35 4.85-4.86 12.05-7 19-7s14 1.95 19 7c10.49 10.51 9.9 25.47 0 35z"/><path d="m306.21 38.38c-4.86-3.11-13-5.64-24.3-7.58-10.69-1.75-17.88-3.31-21.57-5.06-4.08-1.36-6-3.11-6-5 0-2.14 2.34-3.89 6.61-5.25 4.08-1.55 9.53-2.14 15.55-2.14 6.61 0 12.25 1 16.52 3.11s6.61 5.45 6.81 9.33h.19l10.69-7.38c-1.75-4.86-5.44-8.94-10.69-12.05h-.19c-6.42-3.5-14.196667-5.25-23.33-5.25-9.52 0-17.683333 1.75-24.49 5.25-6.61 3.49-9.91 8.16-9.91 14.57 0 6.22 2.72 10.69 8.16 13.8s14.19 5.64 26.24 7.58c5.446116.8197977 10.833893 1.9888754 16.13 3.5 3.7 1.17 6 2.34 7 3.31 1.017143 1.0332006 1.57885 2.4302661 1.56 3.88 0 2.53-2.34 4.67-6.61 6.42-4.08 1.75-9.72 2.72-16.52 2.72-6.289236.1508331-12.532295-1.1100802-18.27-3.69-5.25-2.34-8.17-5.45-8.56-9.14h-.39l-10.3 7.19c1.75 4.47 5.25 8.17 10.69 11.28.59.19 1 .58 1.56.77 7.38 3.89 15.94 5.64 25.27 5.64 10.49 0 19-1.75 25.65-5.44s9.92-9.53 9.92-17.3c-.03-5.69-2.56-9.96-7.42-13.07z"/></g><g fill-rule="nonzero"><g fill="#fff" transform="translate(222 42)"><path d="m189.28 1.06c-21 0-39.06 13.6-39.06 36.73 0 21 15.93 36.74 39.06 36.74 12.83 0 27-5.83 33.63-17.49l-10.3-7.2c-4.67 8-14.19 12.44-23.33 12.44-11.85 0-23.52-6.6-25.85-19.43h64.34c2.33-25.27-15.16-41.79-38.49-41.79zm-25.46 29.94c3.5-11.27 13.8-17.49 25.46-17.49 10.89 0 21.58 5.83 25.27 17.49z"/><path d="m365.14 1.06c-21 0-39.07 13.6-39.07 36.73 0 21 15.94 36.74 39.07 36.74 12.82 0 27-5.83 33.62-17.49l-10.3-7.2c-4.67 8-14.19 12.44-23.32 12.44-11.86 0-23.52-6.6-25.86-19.43h64.34c2.38-25.27-15.16-41.79-38.48-41.79zm-25.47 29.94c3.5-11.27 13.8-17.49 25.47-17.49 10.88 0 21.57 5.83 25.26 17.49z"/><path d="m627.12 1.06c-21 0-39.07 13.6-39.07 36.73 0 21 15.94 36.74 39.07 36.74 12.83 0 27-5.83 33.63-17.49l-10.31-7.2c-4.66 8-14.19 12.44-23.32 12.44-11.86 0-23.52-6.6-25.85-19.43h64.33c2.34-25.27-15.16-41.79-38.48-41.79zm-25.46 29.94c3.5-11.27 13.8-17.49 25.46-17.49 10.88 0 21.57 5.83 25.27 17.49z"/><path d="m545.09 62.87c-11.936136.0378935-22.245191-8.341694-24.646744-20.0337989-2.401552-11.6921049 3.769883-23.4567767 14.754579-28.1268107 10.984696-4.6700339 23.738731-.9513363 30.492165 8.8906096l9.92-7c-7.39-10.5-20-15.55-30.52-15.55-16.13 0-36.93 11.66-36.93 36.73 0 25.27 20.8 36.74 36.93 36.74 10.5 0 23.13-5 30.52-15.55l-9.92-6.8c-4.73434 6.6857557-12.407779 10.6714742-20.6 10.7z"/><path d="m419.41 71.41h12.44v-25.41c0-11.47 0-18.27 6-25.27 4.28-4.86 10.5-7.19 18.28-7.19 8 0 14 2.33 18.46 7.19 6.22 6.61 5.83 13.8 5.83 25.27v25.46h12.44v-30.9c0-27-15-39.46-36.73-39.46-21 0-36.74 12.44-36.74 39.46z"/><path d="m109.43 45.76c0-11.47 1.16-18.47 8-25.27 4.86-4.86 11.66-7 20.41-7v-12.63c-21 0-40.82 15.35-40.82 39.45v31.1h12.44z"/><path d="m41.3 1.06c-21 0-40.81 15.35-40.81 39.45v51.9h12.44v-28.77c13.41 13.61 39.65 14.58 53.45 2.14 8.74-8 12.83-16.71 12.83-28.57 0-20.6-16.14-36.15-37.91-36.15zm17.7 54.62c-5.1668801 4.7402926-11.9927209 7.2550761-19 7-6.8-.19-13.6-2.14-19-7-9.72-8.56-9.72-25.27 0-35 4.85-4.86 12.05-7 19-7s14 1.95 19 7c10.49 10.51 9.9 25.47 0 35z"/><path d="m306.21 38.38c-4.86-3.11-13-5.64-24.3-7.58-10.69-1.75-17.88-3.31-21.57-5.06-4.08-1.36-6-3.11-6-5 0-2.14 2.34-3.89 6.61-5.25 4.08-1.55 9.53-2.14 15.55-2.14 6.61 0 12.25 1 16.52 3.11s6.61 5.45 6.81 9.33h.19l10.69-7.38c-1.75-4.86-5.44-8.94-10.69-12.05h-.19c-6.42-3.5-14.196667-5.25-23.33-5.25-9.52 0-17.683333 1.75-24.49 5.25-6.61 3.49-9.91 8.16-9.91 14.57 0 6.22 2.72 10.69 8.16 13.8s14.19 5.64 26.24 7.58c5.446116.8197977 10.833893 1.9888754 16.13 3.5 3.7 1.17 6 2.34 7 3.31 1.017143 1.0332006 1.57885 2.4302661 1.56 3.88 0 2.53-2.34 4.67-6.61 6.42-4.08 1.75-9.72 2.72-16.52 2.72-6.289236.1508331-12.532295-1.1100802-18.27-3.69-5.25-2.34-8.17-5.45-8.56-9.14h-.39l-10.3 7.19c1.75 4.47 5.25 8.17 10.69 11.28.59.19 1 .58 1.56.77 7.38 3.89 15.94 5.64 25.27 5.64 10.49 0 19-1.75 25.65-5.44s9.92-9.53 9.92-17.3c-.03-5.69-2.56-9.96-7.42-13.07z"/></g><g fill="#eb3340"><path d="m53.5.15-22.22 22.21 17.81 17.82c8.2279699 8.232866 19.3904308 12.8584538 31.03 12.8584538s22.80203-4.6255878 31.03-12.8584538l17.85-17.84-22.24-22.23-17.83 17.89c-2.335356 2.3388194-5.504858 3.653046-8.81 3.653046s-6.474644-1.3142266-8.81-3.653046z"/><path d="m106.76 160.06 22.24-22.21-17.84-17.85c-8.22797-8.232866-19.3904308-12.858454-31.03-12.858454s-22.8020301 4.625588-31.03 12.858454l-17.8 17.83 22.24 22.24 17.79-17.85c2.3323389-2.340674 5.5006759-3.656353 8.805-3.656353s6.4726611 1.315679 8.805 3.656353z"/><path d="m160.08 53.46-22.21-22.21-17.82 17.81c-8.232866 8.2279699-12.858454 19.3904308-12.858454 31.03s4.625588 22.80203 12.858454 31.03l17.83 17.81 22.24-22.24-17.84-17.79c-2.341278-2.3340488-3.657204-5.5040405-3.657204-8.81s1.315926-6.4759512 3.657204-8.81z"/><path d="m.23 106.69 22.21 22.22 17.82-17.82c8.2347122-8.224959 12.8617462-19.3862528 12.8617462-31.025s-4.627034-22.800041-12.8617462-31.025l-17.83-17.81-22.23 22.24 17.8 17.79c2.3382129 2.3336476 3.6521917 5.5014942 3.6521917 8.805s-1.3139788 6.4713524-3.6521917 8.805z"/></g></g></g></svg>